@startuml
!pragma layout smetana
'https://plantuml.com/class-diagram

abstract class Subscriber {
  + abstract do_staff_on_notification()
}

class ConcreteSubscriber {
  ...
  + do_staff_on_notification()
}

class Publisher {
  - subscribers: list
  - some_state
  + subscribe()
  + unsubscribe()
  + notify_subscribers()
  + business_logic()
}


Publisher o--> Subscriber
ConcreteSubscriber --|> Subscriber

@enduml